<?xml version="1.0" encoding="utf-8"?>
<!-- Generator: Adobe Illustrator 17.0.0, SVG Export Plug-In . SVG Version: 6.00 Build 0)  -->
<!DOCTYPE svg PUBLIC "-//W3C//DTD SVG 1.1//EN" "http://www.w3.org/Graphics/SVG/1.1/DTD/svg11.dtd">
<svg version="1.1" id="Layer_1" xmlns="http://www.w3.org/2000/svg" xmlns:xlink="http://www.w3.org/1999/xlink" x="0px" y="0px"
	 width="512px" height="512px" viewBox="0 0 512 512" enable-background="new 0 0 512 512" xml:space="preserve">
<path fill="#A890F0" d="M178.712,477.733c75.003,0,139.215-41.685,165.724-100.777c0.324-0.721-106.429,27.743-103.025,17.681
	c1.52-4.493,66.96-28.399,114.637-56.283c27.403-16.027,40.022-49.954,40.022-49.954s-46.167,22.415-69.506,28.101
	c-47.032,11.46-88.433,10.226-88.433,9.032c0-2.582,68.745-15.644,164.293-73.869c44.943-27.387,57.15-74.561,57.15-74.561
	s-49.411,29.432-79.281,39.149c-70.836,23.043-135.478,29.987-135.478,26.869c0-6.676,56.887-22.319,117.201-51.544
	c31.36-15.195,58.519-35.047,89.992-57.124C503.506,98.332,511.999,34,511.999,34s-50.792,32.76-75.579,43.639
	c-102.279,44.892-192.591,68.44-257.708,73.538C80.416,158.873,0,227.456,0,316.501C0,405.547,80.012,477.733,178.712,477.733z"/>
</svg>
