<?xml version="1.0" encoding="utf-8"?>
<!-- Generator: Adobe Illustrator 17.0.0, SVG Export Plug-In . SVG Version: 6.00 Build 0)  -->
<!DOCTYPE svg PUBLIC "-//W3C//DTD SVG 1.1//EN" "http://www.w3.org/Graphics/SVG/1.1/DTD/svg11.dtd">
<svg version="1.1" id="Layer_1" xmlns="http://www.w3.org/2000/svg" xmlns:xlink="http://www.w3.org/1999/xlink" x="0px" y="0px"
	 width="512px" height="512px" viewBox="0 0 512 512" enable-background="new 0 0 512 512" xml:space="preserve">
<path fill="#B8B8D0" d="M511.95,254.15L384.62,34.19c-0.07-0.12-0.19-0.19-0.33-0.19H129.12c-0.13,0-0.26,0.07-0.33,0.18
	L0.05,254.15c-0.07,0.12-0.07,0.26,0,0.38l128.74,219.72c0.07,0.11,0.2,0.18,0.33,0.18h255.17c0.14,0,0.26-0.07,0.33-0.19
	l127.33-219.72C512.02,254.41,512.02,254.27,511.95,254.15z M256.04,372.79c-65.49,0-118.58-53.09-118.58-118.58
	c0-65.48,53.09-118.57,118.58-118.57s118.58,53.09,118.58,118.57C374.62,319.7,321.53,372.79,256.04,372.79z"/>
</svg>
