<?xml version="1.0" encoding="utf-8"?>
<!-- Generator: Adobe Illustrator 17.0.0, SVG Export Plug-In . SVG Version: 6.00 Build 0)  -->
<!DOCTYPE svg PUBLIC "-//W3C//DTD SVG 1.1//EN" "http://www.w3.org/Graphics/SVG/1.1/DTD/svg11.dtd">
<svg version="1.1" id="Layer_1" xmlns="http://www.w3.org/2000/svg" xmlns:xlink="http://www.w3.org/1999/xlink" x="0px" y="0px"
	 width="512px" height="512px" viewBox="0 0 512 512" enable-background="new 0 0 512 512" xml:space="preserve">
<path fill="#E0C068" d="M112.764,439.754c-0.139,0-0.236-0.137-0.19-0.268L243.289,70.134c0.029-0.08,0.105-0.134,0.19-0.134
	h139.542c0.085,0,0.162,0.054,0.19,0.135l128.776,369.352c0.045,0.131-0.052,0.267-0.19,0.267H116.692H112.764z M0.201,441.199
	c-0.14,0-0.238-0.14-0.188-0.271l97.34-259.872c0.03-0.079,0.104-0.131,0.188-0.131h84.577c0.14,0,0.237,0.139,0.189,0.27
	L88.182,441.067c-0.029,0.079-0.104,0.132-0.189,0.132H0.201z"/>
</svg>
