<?xml version="1.0" encoding="utf-8"?>
<!-- Generator: Adobe Illustrator 17.0.0, SVG Export Plug-In . SVG Version: 6.00 Build 0)  -->
<!DOCTYPE svg PUBLIC "-//W3C//DTD SVG 1.1//EN" "http://www.w3.org/Graphics/SVG/1.1/DTD/svg11.dtd">
<svg version="1.1" id="Layer_1" xmlns="http://www.w3.org/2000/svg" xmlns:xlink="http://www.w3.org/1999/xlink" x="0px" y="0px"
	 width="512px" height="512px" viewBox="0 0 512 512" enable-background="new 0 0 512 512" xml:space="preserve">
<path fill="#B8A038" d="M395.138,244.757c-0.029-0.04-0.041-0.09-0.033-0.139l32.664-190.466c0.015-0.088,0.092-0.152,0.18-0.152
	h10.338c0.08,0,0.15,0.052,0.174,0.128l73.59,233.003c0.023,0.072-0.002,0.152-0.062,0.199l-54.259,42.363
	c-0.081,0.063-0.198,0.047-0.259-0.036L395.138,244.757z M-1,371.022c0,0.079,0.051,0.149,0.126,0.174l111.849,36.571
	c0.054,0.018,0.114,0.009,0.161-0.023l250.009-172.6c0.042-0.029,0.07-0.074,0.077-0.124l26.81-179.892
	c0.017-0.11-0.069-0.21-0.18-0.21H166.406c-0.055,0-0.106,0.024-0.141,0.066L-0.958,256.714C-0.985,256.747-1,256.788-1,256.831
	V371.022z M157.583,417.085l122.193,40.027c0.055,0.018,0.116,0.009,0.163-0.025l145.479-104.353
	c0.081-0.057,0.101-0.168,0.046-0.25l-54.536-81.155c-0.057-0.085-0.171-0.107-0.255-0.049L157.583,417.085z"/>
</svg>
