<?xml version="1.0" encoding="utf-8"?>
<!-- Generator: Adobe Illustrator 17.0.0, SVG Export Plug-In . SVG Version: 6.00 Build 0)  -->
<!DOCTYPE svg PUBLIC "-//W3C//DTD SVG 1.1//EN" "http://www.w3.org/Graphics/SVG/1.1/DTD/svg11.dtd">
<svg version="1.1" id="Layer_1" xmlns="http://www.w3.org/2000/svg" xmlns:xlink="http://www.w3.org/1999/xlink" x="0px" y="0px"
	 width="512px" height="512px" viewBox="0 0 512 512" enable-background="new 0 0 512 512" xml:space="preserve">
<path fill="#A8B820" d="M342.198,0.501c0.373-0.532,1.105-0.661,1.637-0.289l36.354,25.456c0.532,0.372,0.661,1.105,0.289,1.637
	l-50.599,72.262c24.599,7.859,41.358,16.336,41.358,16.336s-40.964,70.462-110.443,70.462s-118.85-65.672-118.85-65.672
	s17.506-11.172,43.456-20.754l-55.5-66.142c-0.417-0.497-0.352-1.239,0.145-1.656l33.997-28.527
	c0.498-0.417,1.239-0.352,1.656,0.145l70.272,83.747c6.017-0.681,12.147-1.061,18.333-1.061c8.891,0,17.771,0.676,26.44,1.823
	L342.198,0.501z M355.944,189.702c18.541-13.242,46.597-47.804,46.597-47.804s71.664,56.79,71.664,177.206
	c0,120.415-123.896,192.888-123.896,192.888s-59.195-59.781-73.727-135.562c-14.531-75.781,21.496-159.927,21.496-159.927
	S337.402,202.944,355.944,189.702L355.944,189.702z M156.261,189.702c-18.541-13.242-46.597-47.804-46.597-47.804
	S38,198.688,38,319.104c0,120.415,123.896,192.888,123.896,192.888s59.195-59.781,73.727-135.562
	c14.531-75.781-21.496-159.927-21.496-159.927S174.803,202.944,156.261,189.702L156.261,189.702z"/>
</svg>
