<?xml version="1.0" encoding="utf-8"?>
<!-- Generator: Adobe Illustrator 17.0.0, SVG Export Plug-In . SVG Version: 6.00 Build 0)  -->
<!DOCTYPE svg PUBLIC "-//W3C//DTD SVG 1.1//EN" "http://www.w3.org/Graphics/SVG/1.1/DTD/svg11.dtd">
<svg version="1.1" id="Layer_1" xmlns="http://www.w3.org/2000/svg" xmlns:xlink="http://www.w3.org/1999/xlink" x="0px" y="0px"
	 width="512px" height="512px" viewBox="0 0 512 512" enable-background="new 0 0 512 512" xml:space="preserve">
<path fill="#F85888" d="M455.925,425.184c0,0-64.56,51.779-193.032,30.352c-97.47-16.257-149.456-123.703-149.456-181.457
	c0-136.93,101.346-168.091,169.863-168.091c68.516,0,113.213,66.8,113.213,118.52s-36.58,96.958-93.507,96.958
	c-56.926,0-73.786-39.965-73.786-76.708c0-36.742,29.727-49.687,56.838-49.687c27.111,0,36.394,23.146,36.394,43.039
	c0,19.894-15.435,27.018-28.309,27.018s-14.147-6.495-19.074-13.321c-4.928-6.825,6.284-32.661-12.176-32.661
	s-21.901,29.701-21.901,29.701s6.73,57.333,62.014,56.344c55.285-0.99,81.512-43.73,73.89-86.045
	c-7.622-42.316-48.689-87.281-120.763-78.195s-101.501,81.91-88.53,159.734c12.971,77.825,106.204,122.917,179.509,106.694
	c73.306-16.223,146.317-69.293,146.317-203.846c0-134.554-116.533-215.433-255.488-202.104
	C98.986,14.758,12.729,136.242,18.25,282.207s144.025,225.462,261.144,229.559c117.119,4.098,188.918-63.699,188.918-63.699
	s16.147-14.399,9.816-25.643C471.798,411.18,455.925,425.184,455.925,425.184z"/>
</svg>
