<?xml version="1.0" encoding="utf-8"?>
<!-- Generator: Adobe Illustrator 17.0.0, SVG Export Plug-In . SVG Version: 6.00 Build 0)  -->
<!DOCTYPE svg PUBLIC "-//W3C//DTD SVG 1.1//EN" "http://www.w3.org/Graphics/SVG/1.1/DTD/svg11.dtd">
<svg version="1.1" id="Layer_1" xmlns="http://www.w3.org/2000/svg" xmlns:xlink="http://www.w3.org/1999/xlink" x="0px" y="0px"
	 width="512px" height="512px" viewBox="0 0 512 512" enable-background="new 0 0 512 512" xml:space="preserve">
<path fill="#EE99AC" d="M511.86,255.78L384.7,186.24l24.86-84.02c0.05-0.18-0.12-0.35-0.3-0.3l-84.05,24.37L256.2,0.13
	c-0.09-0.17-0.33-0.17-0.42,0l-69.01,126.16l-84.04-24.37c-0.19-0.05-0.36,0.12-0.3,0.3l24.85,84.02L0.13,255.78
	c-0.17,0.09-0.17,0.33,0,0.42l126.11,68.98l-23.81,80.5c-0.06,0.18,0.11,0.35,0.3,0.3l82.12-23.81l70.93,129.69
	c0.09,0.17,0.33,0.17,0.42,0l70.93-129.69l82.13,23.81c0.18,0.05,0.35-0.12,0.3-0.3l-23.82-80.5l126.12-68.98
	C512.03,256.11,512.03,255.87,511.86,255.78z M346.87,256.88L288.7,288.7l-31.82,58.17c-0.1,0.17-0.34,0.17-0.43,0l-31.82-58.17
	l-58.18-31.82c-0.17-0.1-0.17-0.34,0-0.43l58.18-31.82l31.82-58.18c0.09-0.17,0.33-0.17,0.43,0l31.82,58.18l58.17,31.82
	C347.04,256.54,347.04,256.78,346.87,256.88z"/>
</svg>
