<?xml version="1.0" encoding="utf-8"?>
<!-- Generator: Adobe Illustrator 17.0.0, SVG Export Plug-In . SVG Version: 6.00 Build 0)  -->
<!DOCTYPE svg PUBLIC "-//W3C//DTD SVG 1.1//EN" "http://www.w3.org/Graphics/SVG/1.1/DTD/svg11.dtd">
<svg version="1.1" id="Layer_1" xmlns="http://www.w3.org/2000/svg" xmlns:xlink="http://www.w3.org/1999/xlink" x="0px" y="0px"
	 width="512px" height="512px" viewBox="0 0 512 512" enable-background="new 0 0 512 512" xml:space="preserve">
<path fill="#682A68" d="M427.821,393.449C479.524,352.108,512,292.376,512,225.95C512,101.161,397.385,0,256,0S0,101.161,0,225.95
	c0,64.028,30.174,121.836,78.655,162.951c-2.938,10.145-4.55,21.18-4.55,32.719c0,49.915,30.162,90.38,67.369,90.38
	c24.176,0,45.378-17.085,57.263-42.746C210.622,494.915,231.824,512,256,512c22.038,0,41.604-14.196,53.895-36.143
	C322.186,497.804,341.752,512,363.789,512c37.207,0,67.369-40.465,67.369-90.38C431.158,411.784,429.986,402.314,427.821,393.449z
	 M404.211,230.431c0,63.354-67.865,114.713-151.579,114.713c-83.715,0-151.579-51.359-151.579-114.713
	s67.864-114.713,151.579-114.713C336.346,115.718,404.211,167.077,404.211,230.431z"/>
</svg>
