<?xml version="1.0" encoding="utf-8"?>
<!-- Generator: Adobe Illustrator 17.0.0, SVG Export Plug-In . SVG Version: 6.00 Build 0)  -->
<!DOCTYPE svg PUBLIC "-//W3C//DTD SVG 1.1//EN" "http://www.w3.org/Graphics/SVG/1.1/DTD/svg11.dtd">
<svg version="1.1" id="Layer_1" xmlns="http://www.w3.org/2000/svg" xmlns:xlink="http://www.w3.org/1999/xlink" x="0px" y="0px"
	 width="512px" height="512px" viewBox="0 0 512 512" enable-background="new 0 0 512 512" xml:space="preserve">
<path fill="#493963" d="M466,447.5c-15.42-8.59-30.61-17.05-19.54-29.11C487.21,373.97,512,315.22,512,250.8
	C512,112.29,397.39,0,256,0S0,112.29,0,250.8s111.77,240.99,251.93,259.43c17.97,2.36,70.84,2.36,117.02,0
	c55.44-2.84,108.78-20.06,118.61-33.52C496.49,464.5,481.13,455.93,466,447.5z M180,258.64c-22.09,0-40-17.55-40-39.19
	c0-14.52,8.05-27.19,20.02-33.96c0.69,18.87,16.21,33.96,35.25,33.96H220C220,241.09,202.09,258.64,180,258.64z M324,258.64
	c-11.04,0-21.04-4.39-28.28-11.48c-7.24-7.09-11.72-16.89-11.72-27.71h24.73c19.04,0,34.56-15.09,35.25-33.96
	c11.97,6.77,20.02,19.44,20.02,33.96C364,241.09,346.09,258.64,324,258.64z"/>
</svg>
