<?xml version="1.0" encoding="utf-8"?>
<!-- Generator: Adobe Illustrator 17.0.0, SVG Export Plug-In . SVG Version: 6.00 Build 0)  -->
<!DOCTYPE svg PUBLIC "-//W3C//DTD SVG 1.1//EN" "http://www.w3.org/Graphics/SVG/1.1/DTD/svg11.dtd">
<svg version="1.1" id="Layer_1" xmlns="http://www.w3.org/2000/svg" xmlns:xlink="http://www.w3.org/1999/xlink" x="0px" y="0px"
	 width="512px" height="512px" viewBox="0 0 512 512" enable-background="new 0 0 512 512" xml:space="preserve">
<path fill="#4E8234" d="M97.412,440.649c-1.757-1.653-3.495-3.338-5.213-5.056c-90.685-90.684-90.685-237.713,0-328.397
	c90.684-90.685,379.64-96.752,379.64-96.752s39.442,334.465-51.242,425.149c-80.54,80.54-205.522,89.55-296.005,27.031
	l72.908-89.471l116.55-25.163l-95.139-9.511l60.462-61.562l68.824-15.077l-54.422-16.117l54.422-98.176l-77.41,86.828
	l-29.893-42.183l10.523,69.648L197.5,322.622l-24.993-76.9V347.99L97.412,440.649z"/>
</svg>
