<?xml version="1.0" encoding="utf-8"?>
<!-- Generator: Adobe Illustrator 17.0.0, SVG Export Plug-In . SVG Version: 6.00 Build 0)  -->
<!DOCTYPE svg PUBLIC "-//W3C//DTD SVG 1.1//EN" "http://www.w3.org/Graphics/SVG/1.1/DTD/svg11.dtd">
<svg version="1.1" id="Layer_1" xmlns="http://www.w3.org/2000/svg" xmlns:xlink="http://www.w3.org/1999/xlink" x="0px" y="0px"
	 width="512px" height="512px" viewBox="0 0 512 512" enable-background="new 0 0 512 512" xml:space="preserve">
<path fill="#49392F" d="M255.66,0c-141.39,0-256,114.61-256,256s114.61,256,256,256c141.38,0,256-114.61,256-256S397.04,0,255.66,0z
	 M259.21,455.11c-10.14,0-20.1-0.77-29.83-2.26c58.24-39.41,97.39-112.81,97.39-196.85c0-79.94-35.42-150.25-89-190.84
	c7.04-0.77,14.2-1.16,21.44-1.16c108,0,195.56,87.55,195.56,195.56C454.77,367.56,367.21,455.11,259.21,455.11z"/>
</svg>
