<?xml version="1.0" encoding="utf-8"?>
<!-- Generator: Adobe Illustrator 17.0.0, SVG Export Plug-In . SVG Version: 6.00 Build 0)  -->
<!DOCTYPE svg PUBLIC "-//W3C//DTD SVG 1.1//EN" "http://www.w3.org/Graphics/SVG/1.1/DTD/svg11.dtd">
<svg version="1.1" id="Layer_1" xmlns="http://www.w3.org/2000/svg" xmlns:xlink="http://www.w3.org/1999/xlink" x="0px" y="0px"
	 width="512px" height="512px" viewBox="0 0 512 512" enable-background="new 0 0 512 512" xml:space="preserve">
<path fill="#638D8D" d="M384.304,39.042l1.575,138.35l-120.67,57.927l-1.488-130.629L384.304,39.042z"/>
<path fill="#638D8D" d="M505.269,257.047l-119.455,68.327l-119.526-68.435l119.464-62.752L505.269,257.047z"/>
<path fill="#638D8D" d="M245.04,257.047l-119.455,68.327L6.059,256.939l119.464-62.752L245.04,257.047z"/>
<path fill="#638D8D" d="M124.243,38.475l123.986,61.406l-3.17,133.816l-117.066-57.978L124.243,38.475z"/>
<path fill="#638D8D" d="M387.678,473.525l-123.986-61.406l3.17-133.817l117.066,57.979L387.678,473.525z"/>
<path fill="#638D8D" d="M128.525,474.77l-1.576-138.35l120.671-57.927l1.488,130.628L128.525,474.77z"/>
</svg>
