<?xml version="1.0" encoding="utf-8"?>
<!-- Generator: Adobe Illustrator 17.0.0, SVG Export Plug-In . SVG Version: 6.00 Build 0)  -->
<!DOCTYPE svg PUBLIC "-//W3C//DTD SVG 1.1//EN" "http://www.w3.org/Graphics/SVG/1.1/DTD/svg11.dtd">
<svg version="1.1" id="Layer_1" xmlns="http://www.w3.org/2000/svg" xmlns:xlink="http://www.w3.org/1999/xlink" x="0px" y="0px"
	 width="512px" height="512px" viewBox="0 0 512 512" enable-background="new 0 0 512 512" xml:space="preserve">
<path fill="#C03028" d="M88.234,42.566C94.43,18.101,116.593,0,142.983,0c19.795,0,37.212,10.185,47.296,25.6h16.513
	c10.259-10.528,24.592-17.067,40.453-17.067c23.254,0,43.226,14.055,51.884,34.133h13.825c8.663-5.408,18.899-8.533,29.864-8.533
	c23.255,0,43.226,14.055,51.884,34.133h37.595c0.321,0,0.622,0.087,0.881,0.237c1.717-0.157,3.456-0.237,5.213-0.237
	c31.191,0,56.475,25.285,56.475,56.475v169.344l0.001,0.314l-0.001,0.314v2.439c0,1.033-0.028,2.062-0.084,3.086
	C491.384,417.717,385.749,512,255.933,512C123.974,512,17,414.577,17,294.4c0-58.009,24.925-110.717,65.553-149.725
	c-0.101,56.553,0.854,115.019,5.257,114.016C99.601,256.003,90.389,80.84,88.234,42.566z"/>
</svg>
