<?xml version="1.0" encoding="utf-8"?>
<!-- Generator: Adobe Illustrator 17.0.0, SVG Export Plug-In . SVG Version: 6.00 Build 0)  -->
<!DOCTYPE svg PUBLIC "-//W3C//DTD SVG 1.1//EN" "http://www.w3.org/Graphics/SVG/1.1/DTD/svg11.dtd">
<svg version="1.1" id="Layer_1" xmlns="http://www.w3.org/2000/svg" xmlns:xlink="http://www.w3.org/1999/xlink" x="0px" y="0px"
	 width="512px" height="512px" viewBox="0 0 512 512" enable-background="new 0 0 512 512" xml:space="preserve">
<path fill="#7038F8" d="M287.12,103.49c0.14-5.06,2.78-15.11,2.78-15.11s19.03-46.03,20.03-55.87c0.07-0.65,0.15-1.36,0.23-2.12
	C311.35,19.76,313.55,0,296.55,0c-9.08,0-13.3,6.75-18.13,14.48c-1.85,2.97-3.8,6.07-6.14,9c-16.87,21.06-45.23,47.37-61.32,61.38
	c-33.99,29.62-67.34,53.97-86.79,68.17c-4.43,3.23-8.13,5.93-10.96,8.05c-2.83,2.12-4.79,3.66-5.71,4.56
	c-13.93,13.58-63.86,103.65-63.86,103.65s-16.15,28.89-10.41,34.75c5.74,5.86,19.58,4.52,19.58,4.52s185.95-42.66,202.59-46.02
	c4.48-0.91,7.65-1.43,10.08-1.83c6.59-1.09,7.78-1.29,15.22-5.83c3.47-2.12,6.42-6.55,8.79-11.48c31.24,12.77,53.2,42.95,53.2,78.14
	c0,46.75-38.75,84.65-86.55,84.65c-19.62,0-37.72-6.39-52.23-17.15c-4.77-2.26-8.68-4.42-11.89-6.19
	c-4.97-2.75-8.23-4.56-10.28-4.27c-5.97,0.82-4.23,6.31-2.66,11.3c1.07,3.39,2.07,6.54,0.53,7.85c-1.62,1.36-6.85-3.62-12.96-9.45
	c-8.31-7.93-18.26-17.41-22.95-14.56c-3.71,2.25-0.11,8.36,4.3,15.84l0.33,0.56c1.86,3.16,4.02,6.38,5.99,9.32
	c4,5.97,7.22,10.78,5.61,11.59c-1.95,0.99-15.54-8.18-26.98-20.91c-4.42-4.92-8.7-10.24-12.68-15.19
	c-8.24-10.25-15.17-18.88-19.34-18.88c-0.24,0-0.47,0.03-0.69,0.09c-4.9,1.28-1.2,11.39,4.25,21.11c2.54,4.55,5.54,9.18,8.13,13.19
	c3.47,5.36,6.22,9.61,6.22,11.06c0,0.24-0.08,0.4-0.23,0.48c-1.5,0.79-14.68-12.07-23.64-28.26c-5.31-9.62-9.78-20.26-13.39-28.86
	c-3.92-9.34-6.84-16.29-8.77-16.99c-6.68-2.43-6.68,11.19-4,30.85c0.35,2.56,0.87,5.25,1.51,7.99
	C96.31,450.79,176.13,512,270.57,512c115.51,0,209.16-91.59,209.16-204.57C479.73,199.9,394.9,111.75,287.12,103.49z M170.41,217.99
	c-16.95,16.1-47.71,14.21-47.71,14.21s16.55-22.65,26.54-32.14c9.97-9.48,34.23-25.63,34.23-25.63S187.35,201.88,170.41,217.99z"/>
</svg>
