<?xml version="1.0" encoding="utf-8"?>
<!-- Generator: Adobe Illustrator 28.0.0, SVG Export Plug-In . SVG Version: 6.00 Build 0)  -->
<svg version="1.0" xmlns="http://www.w3.org/2000/svg" xmlns:xlink="http://www.w3.org/1999/xlink" x="0px" y="0px"
	 viewBox="0 0 512 512" style="enable-background:new 0 0 512 512;" xml:space="preserve">
<style type="text/css">
	.st0{fill:#999999;}
	.st1{fill:#FAC090;}
	.st2{fill:#FFFFFF;}
</style>
<g id="outline">
	<g>
		<g>
			<polygon points="512,320 512,384 480,384 480,416 448,416 448,448 416,448 416,480 448,480 448,512 288,512 288,480 224,480 
				224,512 64,512 64,480 96,480 96,448 64,448 64,416 32,416 32,384 0,384 0,320 32,320 32,288 64,288 64,256 32,256 32,160 
				64,160 64,128 96,128 96,64 64,64 64,32 160,32 160,0 352,0 352,32 384,32 384,64 416,64 416,128 448,128 448,160 480,160 
				480,256 448,256 448,288 480,288 480,320 			"/>
		</g>
	</g>
</g>
<g id="belt_00000049938087847940352020000005415786291340442779_">
	<rect id="belt_00000116198038672808365670000008262347637009972657_" x="224" y="384" class="st0" width="64" height="32"/>
</g>
<g id="leftHand_00000073700882206421752330000009347527224230385069_">
	<rect id="leftHand" x="32" y="320" class="st1" width="64" height="64"/>
</g>
<g id="rightHand_00000026144107789960501630000013372429700599525517_">
	<rect id="rightHand" x="416" y="320" class="st1" width="64" height="64"/>
</g>
<g id="coat_00000145776651780193529970000002210524069059010739_">
	<g>
		<g>
			<polygon class="st2" points="192,352 192,448 96,448 96,416 128,416 128,320 160,320 160,352 			"/>
		</g>
	</g>
	<g>
		<g>
			<polygon class="st2" points="416,416 416,448 320,448 320,352 352,352 352,320 384,320 384,416 			"/>
		</g>
	</g>
</g>
<g id="head">
	<polygon class="st1" points="448,160 448,256 384,256 384,288 352,288 352,320 160,320 160,288 128,288 128,256 64,256 64,160 
		96,160 96,192 128,192 128,128 160,128 160,96 224,96 224,128 256,128 256,96 352,96 352,128 384,128 384,192 416,192 416,160 	"/>
</g>
<g id="hair">
	<polygon class="st0" points="352,32 352,64 256,64 256,96 224,96 224,64 160,64 160,32 	"/>
	<rect x="128" y="64" class="st0" width="32" height="32"/>
	<rect x="352" y="64" class="st0" width="32" height="32"/>
</g>
<g id="eyes">
	<g>
		<g>
			<g>
				<rect x="288" y="192" width="32" height="32"/>
			</g>
		</g>
		<g>
			<g>
				<rect x="288" y="224" width="32" height="32"/>
			</g>
		</g>
	</g>
	<g>
		<g>
			<g>
				<rect x="192" y="192" width="32" height="32"/>
			</g>
		</g>
		<g>
			<g>
				<rect x="192" y="224" width="32" height="32"/>
			</g>
		</g>
	</g>
</g>
</svg>
