<?xml version="1.0" encoding="utf-8"?>
<!-- Generator: Adobe Illustrator 27.0.0, SVG Export Plug-In . SVG Version: 6.00 Build 0)  -->
<svg version="1.1" id="Layer_11" xmlns="http://www.w3.org/2000/svg" xmlns:xlink="http://www.w3.org/1999/xlink" x="0px" y="0px"
	 viewBox="0 0 1120 1120" style="enable-background:new 0 0 1120 1120;" xml:space="preserve">
<style type="text/css">
	.st0{fill:#FF0000;}
	.st1{fill:#FFFFFF;}
</style>
<polygon points="1040,400 1040,720 960,720 960,880 880,880 880,960 720,960 720,1040 400,1040 400,960 240,960 240,880 160,880 
	160,720 80,720 80,400 160,400 160,240 240,240 240,160 400,160 400,80 720,80 720,160 880,160 880,240 960,240 960,400 "/>
<polygon class="st0" points="960,400 960,560 880,560 880,640 720,640 720,560 640,560 640,480 480,480 480,560 400,560 400,640 
	240,640 240,560 160,560 160,400 240,400 240,240 400,240 400,160 720,160 720,240 880,240 880,400 "/>
<polygon class="st1" points="880,720 880,880 720,880 720,960 400,960 400,880 240,880 240,720 480,720 480,800 640,800 640,720 "/>
<rect x="480" y="560" class="st1" width="160" height="160"/>
<polygon class="st1" points="560,320 560,400 480,400 480,480 400,480 400,400 320,400 320,320 400,320 400,240 480,240 480,320 "/>
<rect x="880" y="640" class="st1" width="80" height="80"/>
<rect x="160" y="640" class="st1" width="80" height="80"/>
</svg>
